<?xml version="1.0" encoding="utf-8"?>
<!-- Generator: Adobe Illustrator 25.1.0, SVG Export Plug-In . SVG Version: 6.00 Build 0)  -->
<svg version="1.1" id="Layer_1" xmlns="http://www.w3.org/2000/svg" xmlns:xlink="http://www.w3.org/1999/xlink" x="0px" y="0px"
	 viewBox="0 0 300 78" style="enable-background:new 0 0 300 78;" xml:space="preserve">
<style type="text/css">
	.st0{fill:#FFFFFF;}
</style>
<g>
	<polygon class="st0" points="35.53,37.69 2.1,37.69 2.1,1.15 35.53,1.15 	"/>
	<polygon class="st0" points="72.48,76.85 39.05,76.85 39.05,40.31 72.48,40.31 	"/>
	<polygon class="st0" points="35.53,76.85 2.1,76.85 2.1,40.31 35.53,40.31 	"/>
	<path class="st0" d="M72.8,26.55c0,3.51-1.71,6.27-5.13,8.28c-2.99,1.81-6.9,2.71-11.74,2.71c-4.7,0-8.56-0.87-11.6-2.61
		c-3.51-1.97-5.27-4.83-5.27-8.58h11.67c0,1.2,0.47,2.14,1.42,2.81c1.04,0.64,2.3,0.95,3.77,0.95c3.46,0,5.19-1.27,5.19-3.81
		c0-1.04-0.52-1.92-1.57-2.66c-1.04-0.74-2.33-1.1-3.84-1.1h-1.64v-7.13h1.64c1.57,0,2.76-0.34,3.59-1.03s1.24-1.46,1.24-2.33
		c0-1.04-0.44-1.87-1.32-2.48c-0.88-0.62-1.98-0.93-3.31-0.93c-1.23,0-2.31,0.31-3.24,0.93S51.27,11,51.27,12H39.64
		c0-3.25,1.59-5.89,4.77-7.93C47.4,2.16,51.24,1.2,55.94,1.2c4.65,0,8.53,0.99,11.64,2.99c3.11,1.99,4.66,4.52,4.66,7.6
		s-1.76,5.4-5.27,6.97C70.86,20.71,72.8,23.3,72.8,26.55L72.8,26.55z"/>
	<path class="st0" d="M99.93,37.69c-0.22,0-0.85-0.31-0.97-0.46L88.51,22.86v13.82c0,0.53-0.54,1-1.15,1h-9.65
		c-0.61,0-1.15-0.47-1.15-1V2.34c0-0.54,0.54-1.01,1.15-1.01h8.44c0.22,0,0.85,0.31,0.97,0.47l10.45,14.36V2.34
		c0-0.54,0.54-1.01,1.15-1.01h9.65c0.61,0,1.15,0.47,1.15,1.01v34.35c0,0.53-0.54,1-1.15,1H99.93L99.93,37.69z"/>
	<g>
		<path class="st0" d="M89.78,51.09h3.73l8.85,25.05h-3.62l-2.55-7.5h-9.57l-2.64,7.5h-3.39L89.78,51.09z M95.25,65.87L91.5,54.81
			l-3.9,11.07h7.65V65.87z"/>
		<path class="st0" d="M100.95,51.09h3.85l7.01,12.04l7.01-12.04h3.88l-9.23,14.95v10.09h-3.3V66.04L100.95,51.09z"/>
		<path class="st0" d="M125.65,51.09h9.75c3.31,0,5.87,1.22,7.7,3.67c1.63,2.21,2.44,5.03,2.44,8.47c0,2.66-0.48,5.06-1.44,7.21
			c-1.69,3.8-4.6,5.69-8.73,5.69h-9.71L125.65,51.09L125.65,51.09z M134.75,73.24c1.09,0,1.99-0.12,2.69-0.36
			c1.26-0.44,2.28-1.3,3.08-2.56c0.64-1.01,1.1-2.31,1.38-3.89c0.16-0.94,0.24-1.82,0.24-2.63c0-3.1-0.59-5.51-1.76-7.23
			S137.31,54,134.71,54h-5.73v19.23h5.77V73.24z"/>
		<path class="st0" d="M150.8,51.09h3.34v25.05h-3.34V51.09z"/>
		<path class="st0" d="M159.5,51.09h3.89l12.16,20.24V51.09h3.15v25.05h-3.71l-12.34-20.21v20.21h-3.15V51.09z"/>
		<path class="st0" d="M184.05,51.09h3.3v22.06h12.23v2.98h-15.54L184.05,51.09L184.05,51.09z"/>
		<path class="st0" d="M210.07,51.09h3.73l8.85,25.05h-3.62l-2.55-7.5h-9.57l-2.64,7.5h-3.39L210.07,51.09z M215.55,65.87
			L211.8,54.8l-3.9,11.07H215.55z"/>
		<path class="st0" d="M240.85,51.09v2.98h-8.22v22.06h-3.34V54.07h-8.22v-2.98H240.85z"/>
		<path class="st0" d="M243.81,51.09h4.73l7.01,21.18l6.96-21.18h4.7v25.05h-3.15V61.36c0-0.51,0.01-1.36,0.03-2.54
			s0.03-2.45,0.03-3.8l-6.96,21.12h-3.27l-7.03-21.12v0.77c0,0.61,0.02,1.55,0.05,2.81c0.03,1.26,0.05,2.18,0.05,2.77v14.78h-3.15
			L243.81,51.09L243.81,51.09z"/>
		<path class="st0" d="M279.32,51.09h3.73l8.85,25.05h-3.62l-2.55-7.5h-9.57l-2.64,7.5h-3.39L279.32,51.09z M284.8,65.87
			l-3.75-11.07l-3.9,11.07H284.8z"/>
	</g>
</g>
</svg>
